<?xml version="1.0" encoding="UTF-8"?>
<!DOCTYPE svg PUBLIC "-//W3C//DTD SVG 1.1//EN" "http://www.w3.org/Graphics/SVG/1.1/DTD/svg11.dtd">
<!-- Creator: CorelDRAW 2020 (64-Bit) -->
<svg xmlns="http://www.w3.org/2000/svg" xml:space="preserve" width="38.8743mm" height="52.2662mm" version="1.1" style="shape-rendering:geometricPrecision; text-rendering:geometricPrecision; image-rendering:optimizeQuality; fill-rule:evenodd; clip-rule:evenodd"
viewBox="0 0 2418.22 3251.27"
 xmlns:xlink="http://www.w3.org/1999/xlink"
 xmlns:xodm="http://www.corel.com/coreldraw/odm/2003">
 <defs>
  <style type="text/css">
   <![CDATA[
    .fil0 {fill:#BCB658}
   ]]>
  </style>
 </defs>
 <g id="Capa_x0020_1">
  <metadata id="CorelCorpID_0Corel-Layer"/>
  <path class="fil0" d="M-0 740.49c41.93,35.36 30.57,24.06 98.11,23.76 106.42,-0.47 307.15,33.47 341.77,27.55 33.91,-66.29 -2.89,-251.82 21.94,-323.69 50.82,-25.54 98.38,-28.16 172.35,-22.03 43.39,3.59 118.04,3.04 170.31,3.66 118.8,1.41 233.91,-4 359.92,-4.62 60.57,-0.3 134.53,9.01 187.36,3.32 63.1,-6.82 112.86,6.34 178.82,2.08 88.81,-5.72 268.62,-15.42 355.49,12.07 1.28,62.36 -62.41,214.9 -82.68,273.87 -39.42,114.61 -119.06,240.18 -186.34,344.38 -25.37,39.28 -48.02,67.27 -74.12,102.39 -28.05,37.75 -57.07,60.15 -83.14,93.79 -72.58,93.61 -94.63,89.46 -132.6,128.6 -20.09,20.71 -18.1,28.35 -38.68,46.34 -142.48,124.52 -379.79,264.61 -550.55,325.8 -44.07,15.78 -231.99,82.51 -266.96,79.19 -42.16,-35.89 -26.03,-156.22 -21.38,-221.88 4.78,-67.66 -11.5,-207.34 12.88,-224.25 27.91,-11.28 208.43,46.71 244.27,60.69l109.85 47.46c43.21,15.55 69.26,40 118,17.39 36.09,-16.73 198.17,-128.39 230.32,-155.64 119.57,-101.29 159.1,-110.17 43,-168.5l-146.58 -82.17c-17.69,-11.47 -54.85,-20.37 -79.54,-31.82 -122.18,-56.66 -209.06,-79.69 -342,-115.97 -121.15,-33.06 -253.55,-57.75 -385.73,-71.31 -347.53,-35.66 -219.94,5.69 -250.68,167.23 -0.29,1.5 -1.39,6.44 -1.63,5.57 -0.23,-0.86 -1.02,3.72 -1.8,5.47l0 2125.29c16.12,20.09 15.86,34.74 58.54,36.51 23.63,0.98 60.32,-1.89 85.42,-2.81 60.76,-2.23 106.99,-3.51 170.22,-1.24 47.55,1.7 117.71,15.38 134.4,-31.59l1.82 -520.26c0.17,-83.21 -11.56,-277.57 2.24,-347.27 62.84,-51.14 91.93,-33.65 174.15,-59.33 218.16,-68.1 273.99,-71.92 502.94,-190.38 57.81,-29.91 100.04,-54.59 150.45,-85.05 56.07,-33.88 107.87,-84.38 148.83,-60.39 22.06,12.93 92.78,99.44 111.44,124.09 17.36,22.94 31.79,42.35 50.68,67.05 208.87,272.99 347.18,673.7 353.25,1042.14 0.63,38.33 6.87,59.67 45.52,63.36 44.21,4.22 231.03,-8.37 334.8,-0.73 51.13,3.77 45.21,-7.01 76.53,-26.72 6.08,-105.71 -15.66,-242.68 -28.71,-348.73 -52.78,-428.57 -261.76,-813.41 -526.64,-1133.85 -103.45,-125.15 -92.95,-88.72 8.01,-212.46 203.94,-249.99 360.09,-501.48 459.32,-829.78 37.95,-125.54 115.88,-500.42 103.75,-621.71 -7.71,-77.21 -44.56,-68.47 -120.82,-66.45 -164.86,4.35 -372.83,-3.47 -549.52,-2.28 -22.42,0.15 -701.05,7.81 -727.76,-6.69l-1018.85 0 0 740.49z"/>
 </g>
</svg>
