<?xml version="1.0" encoding="UTF-8"?>
<!DOCTYPE svg PUBLIC "-//W3C//DTD SVG 1.1//EN" "http://www.w3.org/Graphics/SVG/1.1/DTD/svg11.dtd">
<!-- Creator: CorelDRAW 2020 (64-Bit) -->
<svg xmlns="http://www.w3.org/2000/svg" xml:space="preserve" width="299.276mm" height="98.1026mm" version="1.1" style="shape-rendering:geometricPrecision; text-rendering:geometricPrecision; image-rendering:optimizeQuality; fill-rule:evenodd; clip-rule:evenodd"
viewBox="0 0 19881.14 6517.02"
 xmlns:xlink="http://www.w3.org/1999/xlink"
 xmlns:xodm="http://www.corel.com/coreldraw/odm/2003">
 <defs>
  <style type="text/css">
   <![CDATA[
    .fil0 {fill:#FDFFFF}
   ]]>
  </style>
 </defs>
 <g id="Capa_x0020_1">
  <metadata id="CorelCorpID_0Corel-Layer"/>
  <g id="_6058414976">
   <g>
    <path class="fil0" d="M763.51 745.92c128.8,-28.45 671.14,-15.84 841.9,-15.7l1299.26 -0.08c207.42,-0.77 197.7,31.87 136.1,208.42 -141.47,405.41 -347.2,794.41 -628.97,1100.8l-449.86 419.38c-154.6,119.87 -340.62,233.97 -540.57,328.59 -65.37,30.94 -626.12,287.29 -665.07,188.47 -11.08,-28.12 -7.95,-56.79 -7.74,-89.02l0.2 -362.8c0.03,-266.53 -38.37,-278.2 218.64,-215.17 130.8,32.07 237.81,90.51 350.36,139.54 176.25,76.79 244.31,22.38 361.59,-61.73 94.16,-67.53 189.05,-133.75 279.79,-201.04 154.82,-114.8 153.11,-154.92 -16.88,-251.37 -428.83,-243.31 -986.66,-404.74 -1494.06,-453.99 -528.72,-51.32 -443.04,-106.48 -443.08,478.51 -0.09,1050.46 -7.28,2123.57 -0.25,3172.54 1.57,234.32 138.91,160.64 571.28,163.29 102.16,0.63 124.12,2.88 157.24,-81.66 23.9,-60.97 15.52,-155.75 15.45,-225.39l-0.01 -978.66c0.54,-271.03 -21.69,-220.88 215.72,-278.78 248.15,-60.51 512.5,-140.55 726,-244.31 115.85,-56.3 219.02,-108.36 322.63,-166.4 105.8,-59.26 130.35,-80.61 216.86,-145.7 99.27,-74.7 216.41,111 331.74,250.1 225.06,271.48 385.05,623.93 491.2,976.94 50.1,166.6 106.7,424.13 117.44,606.2 2.57,43.55 4.9,206.75 14.14,232.27 25.91,71.58 113.52,55.52 192.56,55.41 81.56,-0.11 163.11,0.02 244.66,-0.11 196.45,-0.31 338.82,56.53 311.08,-180.59 -64.91,-555.04 -180.74,-1091.08 -414.94,-1532.8 -29.52,-55.66 -46.97,-99.6 -80.16,-156.48 -31.73,-54.37 -58.35,-102.34 -89.73,-154.67 -117.85,-196.57 -264.04,-391.78 -423.82,-554.84 -64.14,-65.45 -5.09,-114.96 32.84,-155.52l116.28 -128.37c318.44,-397.93 531.31,-747.45 687.8,-1268.69 81.7,-272.12 180.39,-743.9 176.4,-1043.29 -1.33,-99.28 -32.82,-115.02 -129.77,-117.47 -160.89,-4.06 -328.06,0.27 -489.69,0.22l-3172.49 0.35c-83.18,-0.13 -135.64,15.14 -140.46,100.64 -8.56,151.59 0.39,333.92 0.39,489.02 0,163.17 0.17,326.35 -0.47,489.51 -0.74,194.56 42.33,125.44 335.2,137.62 74.56,3.11 145.04,8 218.98,21.1 82.75,14.65 144.2,49.21 177.36,-31.89 37,-90.49 -9.45,-343.03 26.93,-462.39z"/>
    <path class="fil0" d="M9703.66 2349.12c386.83,-21.03 619.79,80.72 881.38,307.06 215.82,186.73 352.06,503.58 384.93,803.31 105.43,961.48 -854.07,1779.92 -1691.98,1229.39 -51.7,-33.97 -205.03,-168.8 -236.92,-210.33 -22.31,-29.04 -42.31,-52.75 -66.58,-85.78 -135.15,-183.89 -222.88,-394.35 -246.96,-637.16 -49.38,-497.76 149.42,-963.85 545.8,-1241.61 98.12,-68.76 275.32,-156.46 430.34,-164.89zm-1403.65 -1411.25l0.4 2716.62c0.01,217.75 50.37,500.83 133.96,671.31 258.62,527.42 725.74,990.28 1422.14,981.53 238.36,-3 455.78,-58.01 647.06,-154.3 299.41,-150.73 441.92,-327.95 619.2,-577.6 51.87,-73.05 100.38,-172.16 141.7,-263.13 261.04,-574.61 143.28,-1383.34 -257.52,-1833.69 -28.96,-32.54 -43.37,-52.89 -69.74,-82.15 -26.73,-29.67 -56.11,-47.78 -82.38,-77.7 -80.85,-92.07 -240.61,-208.8 -351.17,-264.59 -442.31,-223.18 -1043.97,-186.73 -1459.59,96.39 -67.07,45.68 -120.72,88.83 -174.55,137.48 -62.37,56.38 -126.4,152.14 -151.97,164.12 -4.8,-7.75 -5.13,-5.68 -8.34,-21.54l-0.54 -1467.47c2.48,-127.71 29.28,-103.84 -303.28,-103.41 -88.24,-0.05 -106.01,-17.64 -105.39,78.15z"/>
    <path class="fil0" d="M13419.69 2360.12c251.79,-21.48 472.97,38 655.27,146.6l182.24 130.3c52.05,43.25 102.97,104.33 146.53,157.23 99.9,121.32 154.57,253.37 205.92,410.36 66.64,203.73 41.27,153.17 -172.01,153.55l-2038.46 -3.07c-23.8,-14.06 -10.21,-49.13 -2.87,-78.37 81.2,-323.6 198.87,-492.36 435.46,-688.55 141.82,-117.6 349.9,-207.74 587.93,-228.04zm-1027.47 1415.55c58.57,-26 2013.41,-8.64 2391.32,-9.35 226.76,-0.41 281.6,29.91 282.03,-60.57 1.72,-357.34 -15.74,-586.34 -170.25,-897.62 -58.78,-118.43 -116.12,-200.58 -187.24,-293.24 -55.19,-71.89 -240.81,-256.26 -303.46,-303.69 -174.08,-131.81 -327.02,-218.92 -553.85,-272.02 -563.35,-131.87 -1031.62,44.3 -1403.9,424.85 -302.8,309.51 -553.04,781.52 -493.06,1410.27 35.07,367.63 162.71,673.68 378.95,939.07l111.99 123.98c60.05,60.37 111.36,118.47 182.39,171.84 167.21,125.65 383.47,257.6 659.8,290.87 283.91,34.19 567.8,3.53 816.66,-107.66 127.86,-57.14 370.7,-199.33 461.41,-314.14 21.6,-27.35 3.37,-4.78 31.27,-26.88l85.76 -100.12c100.56,-124.96 316.65,-481.44 302.65,-582.13 -43.01,-13.74 -211.91,-6.84 -268.63,-7.02 -117.74,-0.38 -158.86,-24.67 -203.08,73.77 -80.78,179.83 -224.69,353.86 -380.02,455.81 -388.15,254.74 -899.84,230.78 -1264.08,-41.75 -102.42,-76.63 -85.2,-75.43 -143.18,-127.26 -147.33,-131.75 -260.01,-334.85 -307.12,-528.42 -10.6,-43.55 -55.95,-178.05 -26.35,-218.59z"/>
    <path class="fil0" d="M6077.46 2350.11c256,-15.84 495.49,39.1 693.52,188.22 31.28,23.55 54.9,40.41 83.08,68.67 26.11,26.19 47.35,43.98 73.32,70.39 193.38,196.6 362.29,529.9 358.42,833.67 -2.73,213.9 -2.44,338.87 -68.94,531.97 -133.27,387.05 -484.7,786.84 -962.65,817.75 -1098.88,71.07 -1586,-1387.74 -909.47,-2124.02l114.67 -113.38c118.54,-134.26 415.38,-260.72 618.03,-273.27zm1619.57 2882.85c17.11,-99.02 -2.15,-1410.86 8.97,-1624.55 20.43,-392.48 -103.46,-785.09 -338.91,-1084.24 -18.44,-23.44 -29.69,-34.07 -46.78,-54.01 -16.99,-19.82 -26.76,-37.37 -45.39,-56.2 -21.81,-22.03 -35.35,-31.75 -55.66,-53.66 -270.39,-291.88 -659.07,-456.43 -1074.9,-451.35 -246.45,3.02 -468.99,60.04 -657.42,160.5 -99.63,53.11 -161.94,102.35 -242.35,162.17l-103.17 99.45c-19.1,21.1 -32.25,28.51 -51.86,49.01 -141.51,147.87 -288.14,371.37 -358.96,560.65 -86.31,230.63 -119.16,431.49 -117.98,697.06 1.55,348.18 96.59,670.36 283.59,944.49 110.04,161.31 236.18,304.92 388.63,429.22 61.53,50.18 160.92,114.61 249.87,154.81 419.4,189.56 918.96,200.54 1319.83,-34.6 43.8,-25.69 87.49,-52.02 125.04,-77.3 21.6,-14.54 38.66,-28.78 57.45,-43.68 12.7,-10.08 17.95,-12.98 28.75,-21.83 13.26,-10.85 14.14,-13.86 25.83,-24.41 40.46,-36.48 67.06,-54.45 105.26,-96.99l68.2 -83.37c20,-19.46 2.54,-14.39 35.13,-18.69 27.89,74.74 -18.7,391.83 13.79,460.96 16.73,17.2 340.05,10.74 383.05,6.58z"/>
    <path class="fil0" d="M17701.75 2383.48c25.23,42.63 116.87,25.74 169.62,25.6 64.66,-0.18 129.37,0.07 194.04,0.05 152.37,-0.04 1085.63,-9.24 1154.37,6.21 -4.22,38.57 -398.86,618.21 -429.43,664.68 -145.36,220.88 -288.46,438.02 -436.04,660.83l-655.95 989.15c-63,93.89 -57.36,87.44 -56.25,223.73 0.47,57.82 -15.98,231.96 10.01,268.36 1.74,1.53 4.72,1 5.83,3.79l1647.65 9c162.06,0.18 403.1,14.06 556.06,-4.4 22.81,-46.77 29.12,-364.98 -0.52,-402.72 -43.9,-38.9 -1601.34,12.19 -1668.81,-17.45 -1.94,-35.79 26.84,-60.07 45.02,-89.11 17.07,-27.28 31.91,-52.71 51.91,-83.3 36.05,-55.13 71.9,-105.84 108.11,-161.73l1301.42 -1980.54c61.2,-91.57 56.01,-85.16 56.05,-216.33 0.01,-60.91 7.54,-227.59 -5.81,-275.6 -50.3,-28.36 -882.67,-11.06 -1017.1,-11.13 -119.65,-0.06 -984.55,-14.84 -1017.9,9.87 -21.71,18.68 -13.65,62.61 -13.24,91.2l0.98 289.83z"/>
    <path class="fil0" d="M17095.86 870.63c-23.26,-14.94 -42.14,-11.05 -76.44,-10.73 -402.46,3.87 -331.66,-57.52 -332.05,238.27l-0.08 3248.13c-0.17,216.54 -0.01,433.09 0.1,649.63 0.13,268.4 -20.41,240.13 95.6,238.81 36.62,-0.42 298.16,8.74 313.71,-11.02 24.15,-61.76 8.01,-1936.8 7.92,-2176.67 -0.09,-231.01 16.45,-2127.58 -8.76,-2176.42z"/>
    <path class="fil0" d="M15636.52 864.14c-28.75,52.76 -14.05,485.08 -14.02,588.36l-0.12 3594.03c-0.01,149.2 -19.5,181.4 37.35,188.34l373.47 -2.45c19.44,-128.08 4.5,-395.1 4.5,-540.23 0,-394.31 8.26,-3805.85 -5.38,-3821.82 -34.4,-18.89 -341.95,-14.34 -395.8,-6.23z"/>
    <path class="fil0" d="M288.65 6498.9c134.2,43.89 102.76,-64.29 102.77,-220.6 0,-106.54 -8.17,-243.36 -0.74,-345.53 37.89,14.26 194.85,275.15 218.89,312.44 35.54,55.16 72.48,108.36 107.08,162.77 33.63,52.89 64.29,128 156.78,91.37 39.51,-44.95 18.85,-301.34 18.83,-381.35 -0.07,-309.02 45.56,-433.87 -116.21,-378.67l1.92 564.73c-39.91,-14.72 -196.1,-279.94 -221.79,-318.3 -120.19,-179.52 -142.17,-281.7 -267.9,-248.67 -13.21,61.13 -10.27,691.8 0.39,761.8z"/>
    <path class="fil0" d="M10582.13 6075.82c-0.05,137.67 -5.27,291.54 3.88,425.29l99.36 1.99c3,-86.27 -4.29,-553.72 6.38,-577.39 37.77,14.75 87.34,121.63 111.31,157.44 40.56,60.58 68.68,103.9 106.49,163.32l161.77 242.73c29.63,27.07 90.09,26.74 110.93,0.4 20.5,-25.91 8.67,-519.79 8.04,-607.82 -0.47,-65.3 34.21,-201.09 -108.55,-142.16 -16.77,46.59 -3.86,523.8 -3.41,565.6 -37.55,-14.55 -44.87,-46.34 -82.25,-103.97l-280.92 -427.51c-21.5,-34.06 -70.94,-69.59 -111.2,-39.4 -42.5,31.87 -21.82,267.87 -21.83,341.49z"/>
    <path class="fil0" d="M16054.98 6406.75c-8.62,-41.42 -3.24,-97.86 -3.87,-145.37 -0.65,-48.61 -15.13,-98.46 32.98,-107.66 66.68,-12.75 203.13,-0.47 246.15,37.28 58.52,51.35 49.78,168.04 -18.11,198.79 -53.02,24.01 -199.59,27.79 -257.15,16.97zm-0.32 -577.95c30.94,-16.83 202.42,-5.21 240.98,16.85 59.93,34.28 69.79,140.05 18.59,183.31 -34.92,29.51 -187.88,41.84 -239.31,29.06 -44.25,-10.99 -27.81,-190.54 -20.26,-229.21zm-112.57 69.85l1.69 531.96c-0.45,32.57 -4.05,49.25 12.22,69.61 160.17,13.19 416.08,31.45 492.97,-100.09 100.89,-172.59 -64.07,-264.14 -85.53,-298.99l10.38 -10.27c49.5,-45.8 99.5,-82.04 88.14,-183.38 -8.37,-74.64 -69.85,-134.73 -129.79,-156.65 -75.71,-27.68 -182.04,-23.21 -266.26,-22.64 -60.34,0.41 -109.24,-9.21 -121.34,22.65 -6.58,17.35 -2.46,121.7 -2.48,147.81z"/>
    <path class="fil0" d="M7165.74 5826.88c172.49,-32.53 305.54,83.08 321.37,231.88 19.31,181.64 -63.43,329.74 -215.14,349.46 -397.36,51.62 -431.6,-519.96 -106.23,-581.34zm-5.82 -98.3c-502.93,92.61 -394.93,852.87 130.02,774.46 200.32,-29.92 345.48,-220.66 309.06,-456.76 -30.16,-195.51 -210.98,-359.7 -439.08,-317.7z"/>
    <path class="fil0" d="M4533.92 6185.5c-69.38,-447.32 487.41,-471.07 533.45,-139.12 62.35,449.51 -481.12,476.57 -533.45,139.12zm-113.13 0c66.82,487.73 853.04,403.49 759.26,-141.75 -84.38,-490.56 -832.78,-394.93 -759.26,141.75z"/>
    <path class="fil0" d="M10346.22 6193.93c-65.91,347.21 -623.15,273.02 -530.69,-158.07 73.23,-341.44 612.09,-270.78 530.69,158.07zm-306.5 -468.89c-523.49,79.34 -411.09,839.29 87.19,780.84 521.05,-61.12 398.1,-854.39 -87.19,-780.84z"/>
    <path class="fil0" d="M12950.91 6406.49l-3.56 -576.68c89.57,-20.85 242.4,-7 311.68,40.81 153.86,106.16 151.52,394.95 -1.3,493.41 -69.49,44.77 -221,59.16 -306.82,42.46zm-111.8 -507.84l9.48 593.88c11.34,24.98 194.06,15.66 230.93,13.49 199.46,-11.77 368.21,-92.15 400.96,-322.84 22.32,-157.18 -37.43,-286.1 -118.25,-356.69 -102.24,-89.28 -219.73,-98.62 -384.15,-98.3 -176.05,0.03 -139.7,-6.99 -138.98,170.47z"/>
    <path class="fil0" d="M6329.97 5828.18c123.91,-3.32 287.84,-21.39 282.16,138.01 -2.64,74.43 -37.89,108.67 -98.56,124.51 -45.89,11.98 -146.49,17.47 -192.6,1.81 -12.16,-49.56 -16.93,-227.89 8.99,-264.33zm227.47 365.75c24.25,-33.01 56.84,-36.6 89.62,-62.78 96.46,-77.09 94.7,-220.29 33.66,-305.03 -91.79,-127.4 -401.75,-110.05 -467.44,-86.71 -12.32,64.72 -4.44,460.72 -4.71,581.07 -0.36,156.84 -25.68,212.76 103.13,176.28 8.55,-47.88 3.1,-174.26 2.72,-236.01 -0.7,-112.63 111.02,-77.29 144.09,-17.68 49.88,89.91 168.22,349.5 257.17,252.63 24.98,-27.2 -133.48,-218.93 -158.24,-301.77z"/>
    <path class="fil0" d="M19414.43 6236.66c1.73,-43.95 39.47,-129.48 55.5,-173.64 11.55,-31.81 41.94,-140.38 64.94,-160.81 21.22,15.67 114.83,298.04 116.87,336.92l-237.31 -2.48zm63.35 -495.15c-34.87,45.77 -165.59,438.46 -198.03,527.5 -49.6,136.12 -112.56,242.44 -25.14,240.42 58.97,-1.36 70.49,-43.86 87.99,-91.88 25.05,-68.74 16.36,-84.23 97.99,-84.16 85.93,-0.33 173.22,-4.93 257.71,8.76 29.28,73.78 38.57,210.07 154.94,156.53 16.96,-15.88 -15.56,-85.32 -20.63,-98.45 -12.37,-32.07 -20.61,-60.69 -33,-93.39 -44.64,-117.88 -173.58,-512.24 -208.9,-569.92l-112.94 4.6z"/>
    <path class="fil0" d="M15081.56 6233.8c-0.27,-41.49 67.68,-204.38 86.67,-261.88 22.35,-67.71 14.71,-59.18 42.04,-74.36 18.75,40.1 108.5,303.2 107.7,342.8 -69.61,-1.28 -201.17,8.3 -236.4,-6.56zm64.03 -494.55c-37.02,55.48 -103.7,263.74 -132.5,346.51 -41.16,118.32 -86.77,235.62 -128.21,353.4 -16.46,46.77 -20.35,75 41.44,69.74 127.55,-10.87 25.62,-176.59 185.92,-175.54 45.83,0.31 212.12,-6.99 240.29,7.98 67.08,35.65 8.24,205.87 167.38,160.11 10.36,-22.2 10.02,-19.97 -2.06,-54.77 -5.76,-16.57 -12.7,-32.5 -18.87,-49.36 -11.69,-31.97 -21.39,-61.63 -32.83,-93.3 -40.44,-111.96 -178.79,-518.86 -208.44,-568.03l-112.13 3.26z"/>
    <path class="fil0" d="M11513.48 6233.15c0.11,-31.04 42.6,-135.35 56.21,-172.71 16.64,-45.71 34.93,-138.16 68.74,-160.98 20.11,33.22 110.87,293.05 112.29,332.88 -39.62,16.87 -196.77,17.85 -237.24,0.81zm-41.9 109.09c66.44,-15.13 225.43,-8.15 312.08,-7.95 56.25,77.05 45.75,147.95 80.22,166.02 28.67,8.59 65.8,9.75 93.37,-3.65 7.9,-31.65 -160.8,-475.62 -193.23,-565.91 -56.69,-157.85 -33.98,-216.94 -185.2,-191.25 -33.57,50.34 -276.51,726.82 -270.08,748.04 13.7,45.21 92.84,19.06 113.16,-18.31 21.11,-38.81 34.68,-94.05 49.68,-126.98z"/>
    <path class="fil0" d="M3704.81 5750.53c-16.57,-13.19 -29.63,-22.27 -60.79,-27.59 -70.75,12.17 -53.36,85.96 -52.84,158.84 0.55,75.81 -0.11,151.94 -0.14,227.79 -0.05,151 5.65,284.14 -147.4,300.11 -332.59,34.71 -162.67,-392.34 -216.11,-674.21 -33.13,-6.16 -73.41,-7.05 -105.31,0.5 -14.33,83.4 -12.83,427.85 -0.94,520.34 18.99,147.69 119.89,255.91 281.48,254.79 408.6,-2.84 279.59,-438.62 302.04,-760.57z"/>
    <path class="fil0" d="M1133.77 6294.77l-101.23 -1.8c-27.46,156.13 175.42,242.59 333.95,208.88 142.09,-30.21 248.08,-190.37 145.49,-332.94 -74.71,-103.83 -308.74,-93.73 -357.45,-191.27 -61.04,-122.22 105.04,-209.91 220.42,-126.96 48.41,34.8 33.56,115.16 161.09,71.7 28.12,-204.23 -394.72,-296.38 -491.87,-62.05 -32.55,78.51 -6.22,173.52 37.65,216 102.76,99.46 335.57,68.99 354.66,203.44 18.31,128.92 -203.27,226.46 -302.71,15z"/>
    <path class="fil0" d="M8941.14 6343.96c-24.53,-31.02 -12.64,-37.22 -46.61,-54.43l-88.99 11.54c28.56,264.59 419.34,267.17 506.52,74.76 34.4,-75.96 9.85,-171.56 -28.35,-216.72 -84.44,-99.83 -322.36,-79.8 -356.84,-200.77 -24.12,-84.64 48.18,-141.26 128.17,-141.31 114.2,-0.05 117.46,72.97 162.47,114.96l98.27 -8.84c6.56,-74.85 -54.69,-137.83 -102.74,-165.48 -213.19,-122.64 -517.29,78.15 -369.12,293.09 86.16,124.98 280.67,83.15 354.32,185.97 95.14,132.82 -149.4,268.01 -257.1,107.23z"/>
    <path class="fil0" d="M5698.11 6083.18c-11.53,-36.72 -11.6,-214.35 -0.77,-251.83 45.9,-15.3 290.78,-44.08 290.31,126.3 -0.5,182.19 -260.54,136.67 -289.54,125.53zm-115.6 -100.16c0.13,37.51 -8.5,495.85 14.69,515 1.61,1.33 77.55,32.9 92.95,-26.24l1.65 -125.98c0.05,-49.35 -4.64,-110.17 3.61,-153.27 129.18,-29.04 223.77,25.45 333.06,-72.39 34.7,-31.06 62.23,-68.58 67.7,-131.8 18.33,-211.86 -153.02,-259.85 -348.32,-260.1 -199.3,-0.25 -168.91,-37.89 -165.33,254.78z"/>
    <path class="fil0" d="M19118.26 6414.42c-79.32,-29.3 -252.71,5.21 -339.78,-12.25l-1.53 -13.61c0.07,-1.78 -0.11,-4.61 0.12,-6.54l180.85 -299.1c67.13,-107.27 177.74,-244.74 162.38,-346.16 -47.49,-9.19 -422.55,-17.33 -462.27,-4.61 -32.5,10.4 -41.39,50.74 -16.94,79.82 18.94,22.53 62.56,20.47 99.15,20.1 75.8,-0.76 157.33,-9.55 230.59,1.55 11.09,27.91 -12.66,52.32 -33.55,84.26l-145.02 234.88c-41.47,63.72 -202.76,287.3 -158.23,341.81 44.89,24.66 429.89,21.11 486.55,0.54l-2.32 -80.7z"/>
    <path class="fil0" d="M13605.87 6042.07c0.48,101.63 -6.94,402.96 4.96,456.76 50.21,15.42 234.67,8.9 303.79,8.68 54.35,-0.17 110.65,10.28 108.89,-51.43 -1.84,-64.71 -65.53,-45.25 -142.69,-45.35l-162.9 -0.96c-18.29,-297.24 -27.73,-246.51 205.08,-245.59 92.46,0.36 101.59,-92.11 17.62,-96.3 -55.6,-2.78 -178.37,14.9 -220.8,-8.93 -17.16,-38.4 -9.27,-188.07 -1.61,-230.98 87.48,-16.07 222.81,11.22 298.87,-12.34 9.68,-27.77 7.75,-50.51 0.31,-79.67 -113.2,-12.3 -155.55,-7.53 -263.13,-7.6 -188.62,-0.13 -147.79,-45.31 -148.4,313.72z"/>
    <path class="fil0" d="M18104.3 5735.5c-16.57,192.33 -3.38,556.83 -2.23,765.73 75.13,2.52 335.68,16.93 408.12,-5.46 20.54,-100.3 -26.71,-85.11 -107.29,-84.46 -222.1,1.8 -195.74,25.23 -196.28,-116.13l0.32 -92.46c0.54,-2.66 1.12,-4.78 1.83,-7.22 0.68,-2.35 1.87,-4.65 2.61,-6.66 20.38,-55.16 161.41,-1.77 263.31,-32.76 10.85,-24.49 12.3,-50.26 4.01,-81.17l-126.44 -6.53c-161.41,3.83 -144.91,12.97 -145.59,-119.12 -0.19,-38.75 -8.95,-86 10.61,-119.08 61.63,-26.98 221.59,13.98 292.89,-17.62l6.09 -75.37c-79.34,-9.79 -367.61,-23.42 -411.95,-1.7z"/>
    <path class="fil0" d="M8296.8 6498.2c36.83,19.05 343.83,10.95 397.14,1.24 41.82,-163.96 -132.8,-51.73 -297.61,-93.92 -9.58,-57.5 -20.64,-186.4 4.18,-233.28 69.45,-34.17 197.25,12.38 264.58,-20.09l2.64 -74.54c-117.62,-39.11 -274.49,56.37 -277.35,-68.64l7.07 -177.27c58.39,-25.78 243.22,4.72 283.48,-12.25 23.96,-10.1 31.23,-53.68 15.5,-75.97 -21.54,-30.5 -137.91,-14.88 -181.36,-14.98 -38.23,-0.09 -174.04,-5.21 -201.66,1.99 -50.07,13.05 -29.24,122.25 -29.41,168.18 -0.19,52.93 -4.93,552.07 3.48,580.6 5.01,17.02 1.66,9.19 9.31,18.95z"/>
    <path class="fil0" d="M16608.7 5957.7l1.11 541.86c53.58,4.8 370.31,21.76 401.02,-1.59 15.91,-20.23 25.34,-51.76 5.95,-73.51 -22.77,-25.54 -256.54,-13.98 -296.51,-14.19 -10.22,-45.43 -16.63,-196.85 2.07,-233.21 46.29,-52.27 315.97,47.19 270.98,-82.51 -21.22,-61.2 -234.27,2.45 -270.37,-35.61 -20.63,-41.4 -11.4,-186.84 -1.62,-231.36 83.78,-15.79 227,11.61 297.72,-12.66 7.53,-24.57 7.68,-52.65 1.64,-78.61 -78.14,-16.15 -224.25,-7.71 -313.67,-8.33 -130.51,-0.92 -97.45,-0.36 -98.32,229.72z"/>
    <path class="fil0" d="M7740.88 5770.3c-6.46,117.02 0.59,253.53 0.64,373.01l-0.71 320.26c8.41,79.4 101.65,30.23 102.81,28.61 38.2,-53.24 -51.99,-306.19 39.03,-327.92 9,-2.15 23.36,-2.21 32.96,-2.23 56.69,-0.14 149.71,8.79 195.29,-7.31 17.13,-79.46 5.72,-86.24 -76.36,-86.73 -47.58,-0.29 -145.83,17.65 -175.77,-11.05 -22.69,-27.57 -13.88,-188.56 -7.34,-230.76 100.45,-11.14 225.63,9.02 320.31,-8.66 13.35,-55.11 21.8,-82.39 -42.88,-87.98 -73.54,-1.06 -147.63,-0.35 -221.23,-0.38 -35.83,-0.01 -75.07,-1.73 -110.48,0.17 -49.22,2.64 -49.11,0.98 -56.27,40.97z"/>
    <path class="fil0" d="M1657.59 5812.9c47.68,38.36 165.42,-25.85 186.74,40.02 17.23,53.25 -20.18,615.81 14.26,644.73 35.28,15.66 68.92,7.51 101.66,0.78l5.04 -667.52c59.03,-16.28 140.93,-0.42 199.76,-13.7 37.07,-120.72 -59.65,-88.22 -255.91,-89.06 -47.42,-0.21 -239.42,-16.59 -261.55,18.82 -16.26,25.99 -4.66,51.55 10,65.92z"/>
    <path class="fil0" d="M2519.9 5731.65l-12.12 1.44c-32.25,28.32 -34.17,53.1 6.05,85.34l172.87 7.23c36.9,163.06 -25.48,512.47 13.28,674.19 39.66,9.54 65.57,6.56 106.22,-0.27 16.12,-135.8 -13.57,-573.26 7.97,-673.95 51.98,-3.98 152.08,14.81 190.92,-12.19 23.56,-25.46 19.41,-51.02 0.84,-76.17 -42.58,-18.3 -417.69,-13.7 -486.01,-5.63z"/>
    <path class="fil0" d="M4031.76 6500.54c46.25,8.32 60.08,5.53 104.87,-2.99 18.35,-120.93 -15.81,-582.32 8.68,-666 51.27,-18.95 127.49,-3.1 190.14,-12.62 16.63,-29.71 14.34,-50.4 5.05,-81.67 -54.63,-9.85 -480.01,-20.09 -508.1,0.44 -18.72,13.68 -16.49,57.3 -4.12,72.23 40.51,48.91 184.29,-37.04 196.5,55.87 8.6,65.43 -16.3,541.04 6.98,634.74z"/>
    <path class="fil0" d="M17271.01 5738.35c-113.85,-45.75 -99.01,30.92 -98.24,109.66 1.57,159.28 -9.99,546.2 4.76,653.11 54.95,11.17 313.13,13.88 363.17,-5.09 43.43,-133.99 -102.79,-73.94 -256.4,-87.77 -21.15,-121.63 18.06,-603.74 -13.29,-669.91z"/>
    <path class="fil0" d="M12440.76 6499.87c1.41,-40.58 24.96,-28.66 -3.68,-84.66 -75.39,-11.18 -193.16,7.4 -254.52,-10.93l-2.23 -336.89c-0.09,-248.07 45.73,-371.7 -98.78,-331.46 -15.08,46.96 -8.34,384.59 -8.3,458.01 0.19,370.38 -79.58,321 367.51,305.93z"/>
    <path class="fil0" d="M14449.91 5966.14c-0.04,53.48 -9.86,508.79 14.36,530.56 23.96,21.53 315.78,7.41 355.46,5.66 7.47,-33.33 10.37,-53.48 0.45,-83.14 -73.03,-21.09 -185.79,5.81 -255.04,-14.32 -13.15,-50.61 -7.17,-457.31 -5.19,-565.41 0.87,-47.73 14.4,-103.7 -38.27,-112.49 -107.7,-17.95 -71.73,166.72 -71.77,239.13z"/>
    <path class="fil0" d="M17737.3 5737.33c-104.08,-30.69 -103.57,15.67 -102.78,110.65 1.23,148.65 -10.2,560.79 7.49,652.22 46.08,9.07 317.77,15.47 352.57,-2.54 11.09,-10.91 5.14,6.07 14.39,-21.32 35.66,-105.6 -182.01,-59.09 -259.99,-67.85 -25.85,-97.89 9.65,-578.47 -11.68,-671.16z"/>
    <path class="fil0" d="M124.19 6500.74c12.38,-92.43 2.48,-481.19 3.29,-627.4 0.4,-72.06 29.04,-148 -57.51,-145 -73.39,2.54 -49.93,96.63 -49.8,161.88 0.22,121.89 -8.36,547.52 6.98,608.26 36.83,10.38 58.11,8.8 97.05,2.27z"/>
    <path class="fil0" d="M2278.09 5907.08l-1.06 540.69c2.72,68.46 29.75,67.11 105.75,51.22 1.61,-65.85 11.62,-724.47 -0.9,-750.34 -11.73,-24.23 -51.64,-30.82 -79.45,-14.91 -39.08,22.36 -24.18,119.69 -24.35,173.34z"/>
    <path class="fil0" d="M9476 6486.28c14.74,18.93 15.75,19.78 43.02,21.66 39.05,2.68 43.82,-4.71 58.38,-25.02 12.06,-59.41 2.99,-480.81 3.33,-601.14 0.17,-60.04 25.34,-158.1 -52.92,-154.74 -72.73,3.12 -56.51,96.58 -55.92,154.74 0.68,67.47 1.79,135.1 2.38,202.48 1.14,130.05 -6.04,274.01 1.73,402.03z"/>
   </g>
  </g>
 </g>
</svg>
